TITLE ""
FILE "1Q_t_1401-1409.mp3" MP3
  TRACK 01 AUDIO
    TITLE "1Q_t_1401-1409_01"
    INDEX 01 00:00:00
  TRACK 02 AUDIO
    TITLE "1Q_t_1401-1409_02"
    INDEX 01 00:00:24
  TRACK 03 AUDIO
    TITLE "1Q_t_1401-1409_03"
    INDEX 01 00:03:30
  TRACK 04 AUDIO
    TITLE "1Q_t_1401-1409_04"
    INDEX 01 00:03:73
  TRACK 05 AUDIO
    TITLE "1Q_t_1401-1409_05"
    INDEX 01 00:05:49
  TRACK 06 AUDIO
    TITLE "1Q_t_1401-1409_06"
    INDEX 01 00:06:25
  TRACK 07 AUDIO
    TITLE "1Q_t_1401-1409_07"
    INDEX 01 00:07:26
  TRACK 08 AUDIO
    TITLE "1Q_t_1401-1409_08"
    INDEX 01 00:07:71
  TRACK 09 AUDIO
    TITLE "1Q_t_1401-1409_09"
    INDEX 01 00:09:09
  TRACK 10 AUDIO
    TITLE "1Q_t_1401-1409_10"
    INDEX 01 00:09:19
  TRACK 11 AUDIO
    TITLE "1Q_t_1401-1409_11"
    INDEX 01 00:12:64
  TRACK 12 AUDIO
    TITLE "1Q_t_1401-1409_12"
    INDEX 01 00:12:70
  TRACK 13 AUDIO
    TITLE "1Q_t_1401-1409_13"
    INDEX 01 00:16:72
  TRACK 14 AUDIO
    TITLE "1Q_t_1401-1409_14"
    INDEX 01 00:17:42
  TRACK 15 AUDIO
    TITLE "1Q_t_1401-1409_15"
    INDEX 01 00:18:59
  TRACK 16 AUDIO
    TITLE "1Q_t_1401-1409_16"
    INDEX 01 00:18:71
  TRACK 17 AUDIO
    TITLE "1Q_t_1401-1409_17"
    INDEX 01 00:22:18
  TRACK 18 AUDIO
    TITLE "1Q_t_1401-1409_18"
    INDEX 01 00:22:28
  TRACK 19 AUDIO
    TITLE "1Q_t_1401-1409_19"
    INDEX 01 00:27:33
  TRACK 20 AUDIO
    TITLE "1Q_t_1401-1409_20"
    INDEX 01 00:28:03
  TRACK 21 AUDIO
    TITLE "1Q_t_1401-1409_21"
    INDEX 01 00:29:08
  TRACK 22 AUDIO
    TITLE "1Q_t_1401-1409_22"
    INDEX 01 00:29:18
  TRACK 23 AUDIO
    TITLE "1Q_t_1401-1409_23"
    INDEX 01 00:30:37
  TRACK 24 AUDIO
    TITLE "1Q_t_1401-1409_24"
    INDEX 01 00:30:47
  TRACK 25 AUDIO
    TITLE "1Q_t_1401-1409_25"
    INDEX 01 00:35:18
  TRACK 26 AUDIO
    TITLE "1Q_t_1401-1409_26"
    INDEX 01 00:35:64
  TRACK 27 AUDIO
    TITLE "1Q_t_1401-1409_27"
    INDEX 01 00:36:73
  TRACK 28 AUDIO
    TITLE "1Q_t_1401-1409_28"
    INDEX 01 00:37:06
  TRACK 29 AUDIO
    TITLE "1Q_t_1401-1409_29"
    INDEX 01 00:39:34
  TRACK 30 AUDIO
    TITLE "1Q_t_1401-1409_30"
    INDEX 01 00:39:42
  TRACK 31 AUDIO
    TITLE "1Q_t_1401-1409_31"
    INDEX 01 00:44:19
  TRACK 32 AUDIO
    TITLE "1Q_t_1401-1409_32"
    INDEX 01 00:44:64
  TRACK 33 AUDIO
    TITLE "1Q_t_1401-1409_33"
    INDEX 01 00:46:18
  TRACK 34 AUDIO
    TITLE "1Q_t_1401-1409_34"
    INDEX 01 00:46:26
  TRACK 35 AUDIO
    TITLE "1Q_t_1401-1409_35"
    INDEX 01 00:49:22
  TRACK 36 AUDIO
    TITLE "1Q_t_1401-1409_36"
    INDEX 01 00:49:28
  TRACK 37 AUDIO
    TITLE "1Q_t_1401-1409_37"
    INDEX 01 00:54:22
  TRACK 38 AUDIO
    TITLE "1Q_t_1401-1409_38"
    INDEX 01 00:54:67
  TRACK 39 AUDIO
    TITLE "1Q_t_1401-1409_39"
    INDEX 01 00:55:72
  TRACK 40 AUDIO
    TITLE "1Q_t_1401-1409_40"
    INDEX 01 00:56:05
  TRACK 41 AUDIO
    TITLE "1Q_t_1401-1409_41"
    INDEX 01 00:57:51
  TRACK 42 AUDIO
    TITLE "1Q_t_1401-1409_42"
    INDEX 01 00:57:57
  TRACK 43 AUDIO
    TITLE "1Q_t_1401-1409_43"
    INDEX 01 01:02:23
  TRACK 44 AUDIO
    TITLE "1Q_t_1401-1409_44"
    INDEX 01 01:02:66
  TRACK 45 AUDIO
    TITLE "1Q_t_1401-1409_45"
    INDEX 01 01:04:08
  TRACK 46 AUDIO
    TITLE "1Q_t_1401-1409_46"
    INDEX 01 01:04:16
  TRACK 47 AUDIO
    TITLE "1Q_t_1401-1409_47"
    INDEX 01 01:05:43
  TRACK 48 AUDIO
    TITLE "1Q_t_1401-1409_48"
    INDEX 01 01:05:51
  TRACK 49 AUDIO
    TITLE "1Q_t_1401-1409_49"
    INDEX 01 01:09:68
  TRACK 50 AUDIO
    TITLE "1Q_t_1401-1409_50"
    INDEX 01 01:10:40
  TRACK 51 AUDIO
    TITLE "1Q_t_1401-1409_51"
    INDEX 01 01:11:46
  TRACK 52 AUDIO
    TITLE "1Q_t_1401-1409_52"
    INDEX 01 01:11:52
  TRACK 53 AUDIO
    TITLE "1Q_t_1401-1409_53"
    INDEX 01 01:13:03
  TRACK 54 AUDIO
    TITLE "1Q_t_1401-1409_54"
    INDEX 01 01:13:09
  TRACK 55 AUDIO
    TITLE "1Q_t_1401-1409_55"
    INDEX 01 01:17:56
  TRACK 56 AUDIO
    TITLE "1Q_t_1401-1409_56"
    INDEX 01 01:18:28
  TRACK 57 AUDIO
    TITLE "1Q_t_1401-1409_57"
    INDEX 01 01:19:31
  TRACK 58 AUDIO
    TITLE "1Q_t_1401-1409_58"
    INDEX 01 01:19:39
  TRACK 59 AUDIO
    TITLE "1Q_t_1401-1409_59"
    INDEX 01 01:21:11
  TRACK 60 AUDIO
    TITLE "1Q_t_1401-1409_60"
    INDEX 01 01:21:17
  TRACK 61 AUDIO
    TITLE "1Q_t_1401-1409_61"
    INDEX 01 01:25:48
